<svg version="1.1" xmlns="http://www.w3.org/2000/svg" xmlns:xlink="http://www.w3.org/1999/xlink" width="48" height="48"><defs><linearGradient x1="17.4866" y1="14.2299" x2="31.92761" y2="35.18432" gradientUnits="userSpaceOnUse" id="color-1"><stop offset="0" stop-color="#000000" stop-opacity="0.23"></stop><stop offset="1" stop-color="#000000" stop-opacity="0"></stop></linearGradient><filter id="dropshadow-base"><feColorMatrix type="matrix" values="0 0 0 0 0  0 0 0 0 0  0 0 0 0 0  0 0 0 .8 0"></feColorMatrix> <feOffset dx="0" dy="1"></feOffset> <feGaussianBlur stdDeviation="1"></feGaussianBlur> <feComposite in="SourceGraphic"></feComposite></filter><filter id="dropshadow-banner" x="-10%" y="-10%" width="120%" height="130%"><feColorMatrix type="matrix" values="0 0 0 0 0  0 0 0 0 0  0 0 0 0 0  0 0 0 .4 0"></feColorMatrix> <feOffset dx="0" dy="1"></feOffset> <feGaussianBlur stdDeviation="0.5"></feGaussianBlur> <feComposite in="SourceGraphic"></feComposite></filter></defs><g fill="none" fill-rule="nonzero" stroke="none" stroke-width="none" stroke-linecap="butt" stroke-linejoin="miter" stroke-miterlimit="10" stroke-dasharray="" stroke-dashoffset="0" font-family="none" font-weight="none" font-size="none" text-anchor="none" style="mix-blend-mode: normal"><path d="M4,40c-1.10457,0 -2,-0.89543 -2,-2v-28c0,-1.10457 0.89543,-2 2,-2h40c1.10457,0 2,0.89543 2,2v28c0,1.10457 -0.89543,2 -2,2z" id="base 1 5" fill="#3f51b5" stroke-width="1"></path><path d="M23.24308,26.49979c-2.39911,0 -4.34227,1.94317 -4.34227,4.34227c0,0.83708 0.23656,1.61865 0.64651,2.28154c0.66289,0.40995 1.44447,0.64651 2.28154,0.64651c2.39911,0 4.34227,-1.94317 4.34227,-4.34227v-10.85568h4.34227v-2.92805h-5.09919v11.45817c-0.64049,-0.37452 -1.37867,-0.60249 -2.17113,-0.60249zM30.5134,14.2299l1.41421,1.41421v4.34227h-4.34227v10.85568c0,2.3991 -1.94316,4.34227 -4.34227,4.34227c-1.19955,0 -2.28512,-0.48579 -3.0708,-1.27147l-1.41421,-1.41421c-0.78568,-0.78568 -1.27147,-1.87124 -1.27147,-3.0708c0,-2.3991 1.94316,-4.34227 4.34227,-4.34227c0.79246,0 1.53064,0.22798 2.17113,0.60249v-11.45817z" fill="url(#color-1)" stroke-width="1"></path><path transform="translate(0.55174,0.55174) scale(0.97701,0.97701)" d="M24,14v11.72778c-0.65556,-0.38333 -1.41111,-0.61667 -2.22222,-0.61667c-2.45556,0 -4.44444,1.98889 -4.44444,4.44444c0,2.45556 1.98889,4.44444 4.44444,4.44444c2.45556,0 4.44444,-1.98889 4.44444,-4.44444v-11.11111h4.44444v-4.44444z" fill="none" stroke-width="0"></path><path d="M30.51341,14.22989v4.34227h-4.34227v10.85568c0,2.3991 -1.94317,4.34227 -4.34227,4.34227c-2.3991,0 -4.34227,-1.94317 -4.34227,-4.34227c0,-2.3991 1.94317,-4.34227 4.34227,-4.34227c0.79246,0 1.53065,0.22797 2.17114,0.60249v-11.45817z" fill="#ffffff" stroke-width="0"></path><path d="M2,24c0,-12.15026 9.84974,-22 22,-22c12.15026,0 22,9.84974 22,22c0,12.15026 -9.84974,22 -22,22c-12.15026,0 -22,-9.84974 -22,-22z" id="base 1 1 1" fill="none" stroke-width="1"></path><g fill="#000000" stroke-width="1" font-family="Roboto, sans-serif" font-weight="400" font-size="14" text-anchor="start"></g><rect x="2" y="2" width="44" height="22" fill="none" stroke-width="1"></rect><path d="M2,24v-22h44v22z" fill="none" stroke-width="1"></path><path d="M2,24v-22h44v22z" fill="none" stroke-width="1"></path><path d="M2,24v-22h44v22z" fill="none" stroke-width="1"></path><path d="M2,24v-22h44v22z" fill="none" stroke-width="1"></path></g></svg>